<?xml version="1.0" encoding="iso-8859-1"?>
<!-- Generator: Adobe Illustrator 19.0.0, SVG Export Plug-In . SVG Version: 6.00 Build 0)  -->
<svg version="1.1" id="Capa_1" xmlns="http://www.w3.org/2000/svg" xmlns:xlink="http://www.w3.org/1999/xlink" x="0px" y="0px"
	 viewBox="0 0 512 512" style="enable-background:new 0 0 512 512;" xml:space="preserve">
<path style="fill:#FFFAD2;" d="M512,256c0,141.385-114.615,256-256,256S0,397.385,0,256S114.615,0,256,0S512,114.615,512,256z"/>
<path style="fill:#82CD64;" d="M110,315V145c0-2.761,2.239-5,5-5h121c2.761,0,5,2.239,5,5v170c0,2.761-2.239,5-5,5H115
	C112.239,320,110,317.761,110,315z"/>
<path style="fill:#6EA550;" d="M241,290v25c0,2.761-2.239,5-5,5H115c-2.761,0-5-2.239-5-5V145c0-2.761,2.239-5,5-5h25v30h39.657
	c5.326,0,9.977,4.019,10.321,9.334C190.356,185.159,185.743,190,180,190h-40v60h49.657c5.326,0,9.977,4.019,10.321,9.334
	C200.356,265.159,195.743,270,190,270h-50v10c0,5.523,4.477,10,10,10H241z M180,225c0,5.523,4.477,10,10,10h25
	c5.523,0,10-4.477,10-10s-4.477-10-10-10h-25C184.477,215,180,219.477,180,225z"/>
<path style="fill:#FFF091;" d="M241,355v156.551c-48.531-2.805-93.43-19.127-131-45.26V355c0-2.761,2.239-5,5-5h121
	C238.761,350,241,352.239,241,355z M110,105c0,2.761,2.239,5,5,5h121c2.761,0,5-2.239,5-5V0.449
	c-48.531,2.805-93.43,19.127-131,45.26V105z M45.709,110H75c2.761,0,5-2.239,5-5V70.108C67.256,82.178,55.761,95.549,45.709,110z
	 M75,140H27.736C10.003,174.824,0,214.243,0,256c0,73.209,30.736,139.233,80,185.892V145C80,142.239,77.761,140,75,140z M271,195
	c0,2.761,2.239,5,5,5h119c2.761,0,5-2.239,5-5V44.322C362.841,18.995,318.671,3.204,271,0.449V195z M395,350H276
	c-2.761,0-5,2.239-5,5v156.551c47.671-2.755,91.841-18.546,129-43.874V355C400,352.239,397.761,350,395,350z M435,350
	c-2.761,0-5,2.239-5,5v88.754c27.87-25.841,49.988-57.798,64.189-93.754H435z M395,230H276c-2.761,0-5,2.239-5,5v80
	c0,2.761,2.239,5,5,5h119c2.761,0,5-2.239,5-5v-80C400,232.239,397.761,230,395,230z"/>
<path style="fill:#F5DA73;" d="M512,256c0,22.099-2.801,43.544-8.065,64H430v-90h80.694C511.556,238.55,512,247.223,512,256z
	 M45,180H11.472c-4.982,16.048-8.428,32.772-10.166,50H45c2.761,0,5-2.239,5-5v-40C50,182.239,47.761,180,45,180z M45,250H0.076
	C0.03,251.995,0,253.994,0,256c0,15.005,1.304,29.703,3.78,44H45c2.761,0,5-2.239,5-5v-40C50,252.239,47.761,250,45,250z M220,85V70
	V50V2.532c-10.206,1.437-20.218,3.472-30,6.075V50h-55c-2.761,0-5,2.239-5,5v30c0,2.761,2.239,5,5,5h80
	C217.761,90,220,87.761,220,85z M385,390h-50c-2.761,0-5,2.239-5,5v30c0,2.761,2.239,5,5,5h50c2.761,0,5-2.239,5-5v-30
	C390,392.239,387.761,390,385,390z M385,450h-50c-2.761,0-5,2.239-5,5v30c0,2.761,2.239,5,5,5h24.949
	c10.401-4.627,20.436-9.927,30.051-15.845V455C390,452.239,387.761,450,385,450z M218.333,490h-40c-2.761,0-5,2.239-5,5v3.352
	c16.013,5.46,32.737,9.384,50,11.583V495C223.333,492.239,221.095,490,218.333,490z M218.333,430h-40c-2.761,0-5,2.239-5,5v30
	c0,2.761,2.239,5,5,5h40c2.761,0,5-2.239,5-5v-30C223.333,432.239,221.095,430,218.333,430z"/>
<path style="fill:#FF5A5F;" d="M369.858,410.749L251.121,212.604c-33.106-55.247-24.384-125.932,21.158-171.475l0,0
	c54.839-54.839,143.75-54.839,198.589,0l0,0c45.542,45.542,54.264,116.228,21.158,171.475L373.289,410.749
	C372.512,412.044,370.634,412.044,369.858,410.749z"/>
<path style="fill:#D74646;" d="M385.747,389.959l-12.458,20.789c-0.777,1.296-2.655,1.296-3.431,0L251.121,212.604
	c-33.106-55.247-24.384-125.932,21.158-171.475l0,0c10.429-10.429,22.094-18.861,34.519-25.322
	c-2.947,2.522-5.826,5.166-8.615,7.955l0,0c-48.469,48.469-57.752,123.698-22.518,182.495L385.747,389.959z"/>
<path style="fill:#FFFAD2;" d="M371.573,33.611c-55.229,0-100,44.771-100,100c0,55.228,44.771,100,100,100s100-44.772,100-100
	S426.802,33.611,371.573,33.611z M371.573,213.611c-44.183,0-80-35.817-80-80s35.817-80,80-80s80,35.817,80,80
	S415.756,213.611,371.573,213.611z M431.573,133.611c0,33.137-26.863,60-60,60s-60-26.863-60-60s26.863-60,60-60
	S431.573,100.474,431.573,133.611z"/>
<g>
</g>
<g>
</g>
<g>
</g>
<g>
</g>
<g>
</g>
<g>
</g>
<g>
</g>
<g>
</g>
<g>
</g>
<g>
</g>
<g>
</g>
<g>
</g>
<g>
</g>
<g>
</g>
<g>
</g>
</svg>
